<?xml version="1.0" encoding="UTF-8"?>
<!DOCTYPE svg PUBLIC "-//W3C//DTD SVG 1.1//EN" "http://www.w3.org/Graphics/SVG/1.1/DTD/svg11.dtd">
<svg xmlns="http://www.w3.org/2000/svg" version="1.1" width="64px" height="64px" style="shape-rendering:geometricPrecision; text-rendering:geometricPrecision; image-rendering:optimizeQuality; fill-rule:evenodd; clip-rule:evenodd" xmlns:xlink="http://www.w3.org/1999/xlink">
<g><path style="opacity:0.997" fill="#70ddf2" d="M 38.5,16.5 C 35.8962,17.5304 33.2295,17.5304 30.5,16.5C 31.2341,15.2921 31.5674,13.9587 31.5,12.5C 30.325,12.281 29.325,12.6143 28.5,13.5C 27.039,15.8109 26.7057,18.1442 27.5,20.5C 28.1835,20.1373 28.8501,19.8039 29.5,19.5C 28.1481,23.0215 26.1481,26.1881 23.5,29C 21.9343,29.765 20.6009,29.5983 19.5,28.5C 21.5598,21.8802 24.5598,15.7136 28.5,10C 34.044,8.70419 37.3773,10.8709 38.5,16.5 Z"/></g>
<g><path style="opacity:1" fill="#f2fcfd" d="M 30.5,16.5 C 29.8902,17.391 29.5569,18.391 29.5,19.5C 28.8501,19.8039 28.1835,20.1373 27.5,20.5C 26.7057,18.1442 27.039,15.8109 28.5,13.5C 29.325,12.6143 30.325,12.281 31.5,12.5C 31.5674,13.9587 31.2341,15.2921 30.5,16.5 Z"/></g>
<g><path style="opacity:0.981" fill="#37cfed" d="M 30.5,16.5 C 33.2295,17.5304 35.8962,17.5304 38.5,16.5C 41.0483,20.9301 43.0483,25.5968 44.5,30.5C 43.0924,31.9108 42.0924,33.5775 41.5,35.5C 43.3684,40.0691 45.3684,44.5691 47.5,49C 45.8588,50.129 44.8588,51.629 44.5,53.5C 42.4848,51.3239 40.8181,48.8239 39.5,46C 34.1667,45.3333 28.8333,45.3333 23.5,46C 22.0836,48.8349 20.417,51.5015 18.5,54C 11.4949,55.3236 8.99489,52.4902 11,45.5C 13.7569,39.6856 16.5902,34.0189 19.5,28.5C 20.6009,29.5983 21.9343,29.765 23.5,29C 26.1481,26.1881 28.1481,23.0215 29.5,19.5C 29.5569,18.391 29.8902,17.391 30.5,16.5 Z M 30.5,29.5 C 32.5128,30.4752 33.8461,32.1419 34.5,34.5C 32.5,35.8333 30.5,35.8333 28.5,34.5C 29.4565,32.9246 30.1231,31.258 30.5,29.5 Z"/></g>
<g><path style="opacity:0.933" fill="#2fb2cc" d="M 44.5,30.5 C 47.8204,36.3153 50.4871,42.4819 52.5,49C 51.9069,54.2593 49.2402,55.7593 44.5,53.5C 44.8588,51.629 45.8588,50.129 47.5,49C 45.3684,44.5691 43.3684,40.0691 41.5,35.5C 42.0924,33.5775 43.0924,31.9108 44.5,30.5 Z"/></g>
<g><path style="opacity:0.256" fill="#000000" d="M 46.5,63.5 C 36.5,63.5 26.5,63.5 16.5,63.5C 15.1225,62.7656 13.6225,62.0989 12,61.5C 11.3828,60.5509 11.5494,59.7175 12.5,59C 25.1667,57 37.8333,57 50.5,59C 51.4506,59.7175 51.6172,60.5509 51,61.5C 49.3775,62.0989 47.8775,62.7656 46.5,63.5 Z"/></g>
</svg>
